<svg width="125" height="125" viewBox="0 0 120 125" xmlns="http://www.w3.org/2000/svg" xmlns:xlink="http://www.w3.org/1999/xlink"><title>Logo</title><desc>Created using Figma</desc><g transform="translate(-1374 -2550)"><clipPath id="a" clip-rule="evenodd"><path d="M684 2522h1440v3062H684V2522z" fill="#FFF"/></clipPath><g clip-path="url(#a)"><mask id="c"><use xlink:href="#b" fill="#fff" transform="translate(1376 2553)"/></mask><g mask="url(#c)"><use xlink:href="#d" transform="translate(1376 2553)" fill="#5DB9F4"/></g><g><use xlink:href="#e" transform="translate(1407 2577)" fill="#5DB9F4"/><use xlink:href="#e" transform="translate(1414.28 2577)" fill="#5DB9F4"/><use xlink:href="#e" transform="translate(1421.57 2577)" fill="#5DB9F4"/><use xlink:href="#e" transform="translate(1447.79 2577)" fill="#124F7E"/><use xlink:href="#e" transform="translate(1455.07 2577)" fill="#124F7E"/><use xlink:href="#e" transform="translate(1462.36 2577)" fill="#124F7E"/><use xlink:href="#f" transform="translate(1407 2577)" fill="#0BA7EB"/><use xlink:href="#f" transform="translate(1414.28 2577)" fill="#0BA7EB"/><use xlink:href="#f" transform="translate(1421.57 2577)" fill="#0BA7EB"/></g><g><use xlink:href="#g" transform="translate(1376 2553)" fill="#5DB9F4"/></g></g></g><defs><path id="b" d="M120 60c0 33.137-26.863 60-60 60S0 93.137 0 60 26.863 0 60 0s60 26.863 60 60z"/><path id="d" d="M119 60c0 32.585-26.415 59-59 59v2c33.69 0 61-27.31 61-61h-2zm-59 59C27.415 119 1 92.585 1 60h-2c0 33.69 27.31 61 61 61v-2zM1 60C1 27.415 27.415 1 60 1v-2C26.31-1-1 26.31-1 60h2zM60 1c32.585 0 59 26.415 59 59h2c0-33.69-27.31-61-61-61v2z"/><path id="e" d="M3.642 0H0v72h3.642V0z"/><path id="f" d="M0 0l40.79 72h3.642L3.642 0H0z"/><path id="g" d="M60 118C27.968 118 2 92.032 2 60h-4c0 34.242 27.758 62 62 62v-4zM2 60C2 27.968 27.968 2 60 2v-4C25.758-2-2 25.758-2 60h4z"/></defs></svg>